<svg width="85" height="85" viewBox="0 0 85 85" fill="none" xmlns="http://www.w3.org/2000/svg">
<mask id="path-1-inside-1_8_108" fill="white">
<path d="M30.0177 39.4447C37.199 28.9146 51.557 26.1999 62.0871 33.3813V33.3813C72.6172 40.5627 75.3319 54.9207 68.1505 65.4507V65.4507C60.9691 75.9808 46.6112 78.6955 36.0811 71.5141V71.5141C25.551 64.3328 22.8363 49.9748 30.0177 39.4447V39.4447Z"/>
</mask>
<path d="M30.9945 38.0123C38.1759 27.4822 52.5339 24.7675 63.064 31.9489L63.064 31.9489C73.5941 39.1303 76.3088 53.4882 69.1274 64.0183L68.1505 65.4507C74.7924 55.7117 71.6403 41.9951 61.1102 34.8137C50.5801 27.6323 36.6595 29.7057 30.0177 39.4447L30.9945 38.0123ZM55.1475 84.5172L17.0146 58.5111L55.1475 84.5172ZM17.0146 58.5111L43.0207 20.3783L17.0146 58.5111ZM81.1535 46.3843L55.1475 84.5172L81.1535 46.3843Z" fill="#7CAA8C" mask="url(#path-1-inside-1_8_108)"/>
<mask id="path-3-inside-2_8_108" fill="white">
<path d="M45.5765 30.6966C56.0457 37.9665 58.6393 52.3469 51.3694 62.8161V62.8161C44.0995 73.2853 29.7192 75.8788 19.25 68.6089V68.6089C8.78077 61.3391 6.18721 46.9587 13.4571 36.4895V36.4895C20.7269 26.0203 35.1073 23.4268 45.5765 30.6966V30.6966Z"/>
</mask>
<path d="M47.0006 31.6855C57.4698 38.9554 60.0634 53.3358 52.7935 63.805L52.7935 63.805C45.5236 74.2742 31.1433 76.8677 20.6741 69.5979L19.25 68.6089C28.9327 75.3327 42.6754 72.2963 49.9453 61.8271C57.2151 51.3579 55.2592 37.4203 45.5765 30.6966L47.0006 31.6855ZM0.293816 55.4457L26.6203 17.5334L0.293816 55.4457ZM26.6203 17.5334L64.5327 43.8599L26.6203 17.5334ZM38.2061 81.7722L0.293816 55.4457L38.2061 81.7722Z" fill="#7CAA8C" mask="url(#path-3-inside-2_8_108)"/>
<mask id="path-5-inside-3_8_108" fill="white">
<path d="M54.1931 46.3287C46.8352 56.7363 32.4335 59.2085 22.026 51.8507V51.8507C11.6184 44.4929 9.14614 30.0912 16.504 19.6836V19.6836C23.8618 9.27604 38.2635 6.80376 48.6711 14.1616V14.1616C59.0786 21.5195 61.5509 35.9211 54.1931 46.3287V46.3287Z"/>
</mask>
<path d="M53.1922 47.7444C45.8343 58.152 31.4326 60.6243 21.0251 53.2664L21.0251 53.2664C10.6175 45.9086 8.14525 31.5069 15.5031 21.0993L16.504 19.6836C9.69891 29.3093 12.6193 43.0771 23.0269 50.435C33.4344 57.7928 47.388 55.9544 54.1931 46.3287L53.1922 47.7444ZM29.8265 0.839056L67.5156 27.4842L29.8265 0.839056ZM67.5156 27.4842L40.8705 65.1732L67.5156 27.4842ZM3.18143 38.5281L29.8265 0.839056L3.18143 38.5281Z" fill="#7CAA8C" mask="url(#path-5-inside-3_8_108)"/>
<mask id="path-7-inside-4_8_108" fill="white">
<path d="M38.4889 54.8132C28.1438 47.3679 25.793 32.9459 33.2383 22.6007V22.6007C40.6836 12.2555 55.1056 9.90469 65.4508 17.35V17.35C75.7959 24.7953 78.1467 39.2173 70.7014 49.5625V49.5625C63.2561 59.9077 48.8341 62.2585 38.4889 54.8132V54.8132Z"/>
</mask>
<path d="M37.0817 53.8004C26.7365 46.3551 24.3857 31.9331 31.831 21.5879C39.2763 11.2427 53.6983 8.89191 64.0435 16.3372L65.4508 17.35C55.8828 10.464 42.0908 13.2683 34.6455 23.6135C27.2002 33.9586 28.921 47.9272 38.4889 54.8132L37.0817 53.8004ZM84.1823 30.8309L57.2205 68.2941L84.1823 30.8309ZM57.2205 68.2941L19.7574 41.3323L57.2205 68.2941ZM46.7192 3.86909L84.1823 30.8309L46.7192 3.86909Z" fill="#7CAA8C" mask="url(#path-7-inside-4_8_108)"/>
<circle cx="41.6585" cy="42.6585" r="9.65848" fill="#7CAA8C"/>
</svg>