<svg width="213" height="133" viewBox="0 0 213 133" fill="none" xmlns="http://www.w3.org/2000/svg">
<mask id="path-1-inside-1_8_120" fill="white">
<path d="M102.018 39.4447C109.199 28.9146 123.557 26.1999 134.087 33.3813V33.3813C144.617 40.5627 147.332 54.9207 140.151 65.4507V65.4507C132.969 75.9808 118.611 78.6955 108.081 71.5141V71.5141C97.551 64.3328 94.8363 49.9748 102.018 39.4447V39.4447Z"/>
</mask>
<path d="M102.995 38.0123C110.176 27.4822 124.534 24.7675 135.064 31.9489L135.064 31.9489C145.594 39.1303 148.309 53.4882 141.127 64.0183L140.151 65.4507C146.792 55.7117 143.64 41.9951 133.11 34.8137C122.58 27.6323 108.66 29.7057 102.018 39.4447L102.995 38.0123ZM127.147 84.5172L89.0146 58.5111L127.147 84.5172ZM89.0146 58.5111L115.021 20.3783L89.0146 58.5111ZM153.154 46.3843L127.147 84.5172L153.154 46.3843Z" fill="#7CAA8C" mask="url(#path-1-inside-1_8_120)"/>
<mask id="path-3-inside-2_8_120" fill="white">
<path d="M117.576 30.6966C128.046 37.9665 130.639 52.3469 123.369 62.8161V62.8161C116.1 73.2853 101.719 75.8788 91.25 68.6089V68.6089C80.7808 61.3391 78.1872 46.9587 85.4571 36.4895V36.4895C92.7269 26.0203 107.107 23.4268 117.576 30.6966V30.6966Z"/>
</mask>
<path d="M119.001 31.6855C129.47 38.9554 132.063 53.3358 124.794 63.805L124.794 63.805C117.524 74.2742 103.143 76.8677 92.6741 69.5979L91.25 68.6089C100.933 75.3327 114.675 72.2963 121.945 61.8271C129.215 51.3579 127.259 37.4203 117.576 30.6966L119.001 31.6855ZM72.2938 55.4457L98.6203 17.5334L72.2938 55.4457ZM98.6203 17.5334L136.533 43.8599L98.6203 17.5334ZM110.206 81.7722L72.2938 55.4457L110.206 81.7722Z" fill="#7CAA8C" mask="url(#path-3-inside-2_8_120)"/>
<mask id="path-5-inside-3_8_120" fill="white">
<path d="M126.193 46.3287C118.835 56.7363 104.434 59.2085 94.026 51.8507V51.8507C83.6184 44.4929 81.1461 30.0912 88.504 19.6836V19.6836C95.8618 9.27604 110.264 6.80376 120.671 14.1616V14.1616C131.079 21.5195 133.551 35.9211 126.193 46.3287V46.3287Z"/>
</mask>
<path d="M125.192 47.7444C117.834 58.152 103.433 60.6243 93.0251 53.2664L93.0251 53.2664C82.6175 45.9086 80.1453 31.5069 87.5031 21.0993L88.504 19.6836C81.6989 29.3093 84.6193 43.0771 95.0269 50.435C105.434 57.7928 119.388 55.9544 126.193 46.3287L125.192 47.7444ZM101.827 0.839056L139.516 27.4842L101.827 0.839056ZM139.516 27.4842L112.871 65.1732L139.516 27.4842ZM75.1814 38.5281L101.827 0.839056L75.1814 38.5281Z" fill="#7CAA8C" mask="url(#path-5-inside-3_8_120)"/>
<mask id="path-7-inside-4_8_120" fill="white">
<path d="M110.489 54.8132C100.144 47.3679 97.793 32.9459 105.238 22.6007V22.6007C112.684 12.2555 127.106 9.90469 137.451 17.35V17.35C147.796 24.7953 150.147 39.2173 142.701 49.5625V49.5625C135.256 59.9077 120.834 62.2585 110.489 54.8132V54.8132Z"/>
</mask>
<path d="M109.082 53.8004C98.7365 46.3551 96.3857 31.9331 103.831 21.5879C111.276 11.2427 125.698 8.89191 136.044 16.3372L137.451 17.35C127.883 10.464 114.091 13.2683 106.646 23.6135C99.2002 33.9586 100.921 47.9272 110.489 54.8132L109.082 53.8004ZM156.182 30.8309L129.221 68.2941L156.182 30.8309ZM129.221 68.2941L91.7574 41.3323L129.221 68.2941ZM118.719 3.86909L156.182 30.8309L118.719 3.86909Z" fill="#7CAA8C" mask="url(#path-7-inside-4_8_120)"/>
<circle cx="113.658" cy="42.6585" r="9.65848" fill="#7CAA8C"/>
<path d="M2.57421 86.8441C5.05022 86.6733 7.23807 86.5879 9.13777 86.5879C14.41 86.5879 17.0461 88.3489 17.0461 91.8708C17.0461 93.1942 16.6619 94.3361 15.8934 95.2967C15.125 96.2358 13.8977 96.8762 12.2114 97.2177C13.8337 97.4098 15.1144 97.9007 16.0535 98.6905C16.9927 99.4803 17.4623 100.857 17.4623 102.821C17.4623 106.94 14.8262 109 9.554 109H2.57421V86.8441ZM5.23165 108.68H9.554C11.4537 108.68 12.7984 108.189 13.5882 107.207C14.3993 106.204 14.8048 104.678 14.8048 102.629C14.8048 100.58 14.3993 99.2134 13.5882 98.5304C12.7771 97.8474 11.5711 97.4845 9.97022 97.4418H5.23165V108.68ZM9.13777 86.9081C7.89977 86.9081 6.59773 86.9828 5.23165 87.1322V97.1216H9.97022C12.9799 96.9936 14.4847 95.2646 14.4847 91.9348C14.4847 90.3126 14.0364 89.0746 13.1399 88.2208C12.2435 87.3457 10.9094 86.9081 9.13777 86.9081ZM33.577 86.5879V86.9081H23.4916V96.5133H32.8406V96.8335H23.4916V108.68H34.2814V109H20.8341V86.5879H33.577ZM49.8224 109H37.6558V86.5879H40.3132V108.68H49.8224V109ZM65.2057 109H53.0391V86.5879H55.6965V108.68H65.2057V109ZM67.526 109H67.1418L76.715 86.5879L77.0671 86.4278L85.1355 109H82.414L79.9167 101.956H70.5676L67.526 109ZM75.7224 90.0458L70.6957 101.636H79.8206L75.7224 90.0458ZM90.0439 109H87.3865V86.5879H90.0439V96.8975H100.45V86.5879H103.107V109H100.45V97.2177H90.0439V109ZM129.254 86.5879V86.9081H119.168V97.1537H128.518V97.4738H119.168V109H116.511V86.5879H129.254ZM132.614 86.8441C135.09 86.6733 137.277 86.5879 139.177 86.5879C144.449 86.5879 147.085 88.3489 147.085 91.8708C147.085 93.3649 146.723 94.699 145.997 95.873C145.271 97.0469 144.022 97.826 142.251 98.2102L148.654 109H145.677L139.401 98.4023H135.271V109H132.614V86.8441ZM139.177 86.9081C137.939 86.9081 136.637 86.9828 135.271 87.1322V98.0822H140.01C143.019 97.9541 144.524 95.905 144.524 91.9348C144.524 90.3126 144.076 89.0746 143.179 88.2208C142.283 87.3457 140.949 86.9081 139.177 86.9081ZM164.586 86.5879V86.9081H154.5V96.5133H163.849V96.8335H154.5V108.68H165.29V109H151.843V86.5879H164.586ZM168.664 86.9081V86.5879H174.363V86.9081H172.795V108.68H174.363V109H168.664V108.68H170.137V86.9081H168.664ZM178.857 86.8441C181.333 86.6733 183.521 86.5879 185.421 86.5879C190.693 86.5879 193.329 88.3489 193.329 91.8708C193.329 93.3649 192.966 94.699 192.241 95.873C191.515 97.0469 190.266 97.826 188.495 98.2102L194.898 109H191.92L185.645 98.4023H181.515V109H178.857V86.8441ZM185.421 86.9081C184.183 86.9081 182.881 86.9828 181.515 87.1322V98.0822H186.253C189.263 97.9541 190.768 95.905 190.768 91.9348C190.768 90.3126 190.32 89.0746 189.423 88.2208C188.527 87.3457 187.193 86.9081 185.421 86.9081ZM210.83 86.5879V86.9081H200.744V96.5133H210.093V96.8335H200.744V108.68H211.534V109H198.087V86.5879H210.83Z" fill="#F058A5"/>
<path d="M40.2429 128.16C40.0616 128.16 39.9176 128.107 39.8109 128C39.7043 127.883 39.6509 127.723 39.6509 127.52V118.72C39.6509 118.123 39.8269 117.653 40.1789 117.312C40.5416 116.971 41.0429 116.8 41.6829 116.8H46.6429C47.0589 116.8 47.2669 116.971 47.2669 117.312C47.2669 117.461 47.2136 117.579 47.1069 117.664C47.0003 117.749 46.8456 117.792 46.6429 117.792H41.6989C41.4429 117.792 41.2349 117.877 41.0749 118.048C40.9256 118.219 40.8509 118.443 40.8509 118.72V121.936H45.4269C45.8429 121.936 46.0509 122.107 46.0509 122.448C46.0509 122.608 45.9923 122.731 45.8749 122.816C45.7683 122.901 45.6189 122.944 45.4269 122.944H40.8509V127.52C40.8509 127.723 40.7976 127.883 40.6909 128C40.5843 128.107 40.4349 128.16 40.2429 128.16ZM57.1853 128.16C56.108 128.16 55.1373 127.925 54.2733 127.456C53.4093 126.976 52.7266 126.299 52.2253 125.424C51.7346 124.549 51.4893 123.541 51.4893 122.4C51.4893 121.248 51.7346 120.24 52.2253 119.376C52.7266 118.501 53.4093 117.829 54.2733 117.36C55.1373 116.88 56.108 116.64 57.1853 116.64C58.2627 116.64 59.2333 116.88 60.0973 117.36C60.9613 117.829 61.6387 118.501 62.1293 119.376C62.6307 120.24 62.8813 121.248 62.8813 122.4C62.8813 123.541 62.6307 124.549 62.1293 125.424C61.6387 126.299 60.9613 126.976 60.0973 127.456C59.2333 127.925 58.2627 128.16 57.1853 128.16ZM57.1853 127.136C58.0493 127.136 58.8173 126.949 59.4893 126.576C60.172 126.203 60.7053 125.664 61.0893 124.96C61.484 124.245 61.6813 123.392 61.6813 122.4C61.6813 121.397 61.4787 120.539 61.0733 119.824C60.6787 119.109 60.1347 118.571 59.4413 118.208C58.7587 117.845 57.996 117.664 57.1533 117.664C56.3 117.664 55.532 117.851 54.8493 118.224C54.1773 118.597 53.6493 119.141 53.2653 119.856C52.8813 120.571 52.6893 121.419 52.6893 122.4C52.6893 123.392 52.8813 124.245 53.2653 124.96C53.66 125.664 54.1933 126.203 54.8653 126.576C55.548 126.949 56.3213 127.136 57.1853 127.136ZM71.8074 128.16C71.6154 128.16 71.4661 128.107 71.3594 128C71.2634 127.883 71.2154 127.723 71.2154 127.52V117.792H67.5514C67.3594 117.792 67.2048 117.755 67.0874 117.68C66.9808 117.595 66.9274 117.472 66.9274 117.312C66.9274 116.971 67.1354 116.8 67.5514 116.8H76.0954C76.5114 116.8 76.7194 116.971 76.7194 117.312C76.7194 117.461 76.6661 117.579 76.5594 117.664C76.4528 117.749 76.2981 117.792 76.0954 117.792H72.4314V127.52C72.4314 127.723 72.3728 127.883 72.2554 128C72.1488 128.107 71.9994 128.16 71.8074 128.16ZM86.4441 128.16C85.3667 128.16 84.3961 127.925 83.5321 127.456C82.6681 126.976 81.9854 126.299 81.4841 125.424C80.9934 124.549 80.7481 123.541 80.7481 122.4C80.7481 121.248 80.9934 120.24 81.4841 119.376C81.9854 118.501 82.6681 117.829 83.5321 117.36C84.3961 116.88 85.3667 116.64 86.4441 116.64C87.5214 116.64 88.4921 116.88 89.3561 117.36C90.2201 117.829 90.8974 118.501 91.3881 119.376C91.8894 120.24 92.1401 121.248 92.1401 122.4C92.1401 123.541 91.8894 124.549 91.3881 125.424C90.8974 126.299 90.2201 126.976 89.3561 127.456C88.4921 127.925 87.5214 128.16 86.4441 128.16ZM86.4441 127.136C87.3081 127.136 88.0761 126.949 88.7481 126.576C89.4307 126.203 89.9641 125.664 90.3481 124.96C90.7427 124.245 90.9401 123.392 90.9401 122.4C90.9401 121.397 90.7374 120.539 90.3321 119.824C89.9374 119.109 89.3934 118.571 88.7001 118.208C88.0174 117.845 87.2547 117.664 86.4121 117.664C85.5587 117.664 84.7907 117.851 84.1081 118.224C83.4361 118.597 82.9081 119.141 82.5241 119.856C82.1401 120.571 81.9481 121.419 81.9481 122.4C81.9481 123.392 82.1401 124.245 82.5241 124.96C82.9187 125.664 83.4521 126.203 84.1241 126.576C84.8067 126.949 85.5801 127.136 86.4441 127.136ZM102.993 128.16C101.862 128.16 100.876 127.925 100.033 127.456C99.1904 126.987 98.5397 126.32 98.0811 125.456C97.6224 124.581 97.3931 123.568 97.3931 122.416C97.3931 121.264 97.6224 120.251 98.0811 119.376C98.5397 118.501 99.1904 117.829 100.033 117.36C100.886 116.88 101.873 116.64 102.993 116.64C103.9 116.64 104.742 116.795 105.521 117.104C106.31 117.413 106.913 117.84 107.329 118.384C107.425 118.491 107.473 118.619 107.473 118.768C107.473 118.939 107.398 119.072 107.249 119.168C107.153 119.232 107.046 119.264 106.929 119.264C106.833 119.264 106.737 119.243 106.641 119.2C106.545 119.147 106.465 119.083 106.401 119.008C106.07 118.592 105.612 118.267 105.025 118.032C104.438 117.787 103.761 117.664 102.993 117.664C102.097 117.664 101.318 117.856 100.657 118.24C99.9957 118.624 99.4891 119.173 99.1371 119.888C98.7851 120.603 98.6091 121.445 98.6091 122.416C98.6091 123.888 98.9984 125.045 99.7771 125.888C100.556 126.72 101.628 127.136 102.993 127.136C103.708 127.136 104.342 127.024 104.897 126.8C105.452 126.565 105.884 126.245 106.193 125.84C106.513 125.424 106.673 124.955 106.673 124.432V123.888C106.673 123.6 106.614 123.392 106.497 123.264C106.39 123.136 106.182 123.072 105.873 123.072H103.441C103.036 123.072 102.833 122.912 102.833 122.592C102.833 122.251 103.036 122.08 103.441 122.08H106.081C106.689 122.08 107.142 122.213 107.441 122.48C107.74 122.747 107.889 123.157 107.889 123.712V124.32C107.889 125.035 107.676 125.685 107.249 126.272C106.822 126.859 106.236 127.323 105.489 127.664C104.742 127.995 103.91 128.16 102.993 128.16ZM113.484 118.8C113.484 118.192 113.66 117.707 114.012 117.344C114.374 116.981 114.897 116.8 115.58 116.8H118.572C121.473 116.8 122.924 118.005 122.924 120.416C122.924 121.579 122.572 122.459 121.868 123.056C121.164 123.653 120.102 123.952 118.684 123.952L121.788 127.168C121.884 127.264 121.932 127.387 121.932 127.536C121.932 127.728 121.852 127.883 121.692 128C121.564 128.096 121.43 128.144 121.292 128.144C121.078 128.144 120.876 128.037 120.684 127.824L117.004 123.952H114.844V127.472C114.844 127.685 114.78 127.856 114.652 127.984C114.534 128.101 114.369 128.16 114.156 128.16C113.942 128.16 113.777 128.101 113.66 127.984C113.542 127.856 113.484 127.685 113.484 127.472V118.8ZM118.652 122.848C119.633 122.848 120.358 122.667 120.828 122.304C121.308 121.931 121.548 121.301 121.548 120.416C121.548 119.52 121.308 118.88 120.828 118.496C120.348 118.101 119.622 117.904 118.652 117.904H115.66C115.414 117.904 115.217 117.984 115.068 118.144C114.918 118.304 114.844 118.523 114.844 118.8V122.848H118.652ZM129.049 128.16C128.867 128.16 128.723 128.107 128.617 128C128.51 127.883 128.457 127.723 128.457 127.52V121.264C128.457 119.813 128.862 118.683 129.673 117.872C130.494 117.051 131.63 116.64 133.081 116.64C134.521 116.64 135.651 117.051 136.473 117.872C137.294 118.693 137.705 119.824 137.705 121.264V127.52C137.705 127.723 137.651 127.883 137.545 128C137.438 128.107 137.289 128.16 137.097 128.16C136.915 128.16 136.766 128.107 136.649 128C136.542 127.883 136.489 127.723 136.489 127.52V123.92H129.657V127.52C129.657 127.723 129.603 127.883 129.497 128C129.39 128.107 129.241 128.16 129.049 128.16ZM136.489 122.928V121.216C136.489 120.075 136.195 119.2 135.609 118.592C135.022 117.973 134.179 117.664 133.081 117.664C131.971 117.664 131.123 117.968 130.537 118.576C129.95 119.184 129.657 120.064 129.657 121.216V122.928H136.489ZM144.289 128.16C144.108 128.16 143.964 128.107 143.857 128C143.751 127.883 143.697 127.723 143.697 127.52V118.72C143.697 118.123 143.873 117.653 144.225 117.312C144.588 116.971 145.089 116.8 145.729 116.8H150.689C151.105 116.8 151.313 116.971 151.313 117.312C151.313 117.461 151.26 117.579 151.153 117.664C151.047 117.749 150.892 117.792 150.689 117.792H145.745C145.489 117.792 145.281 117.877 145.121 118.048C144.972 118.219 144.897 118.443 144.897 118.72V121.936H149.473C149.889 121.936 150.097 122.107 150.097 122.448C150.097 122.608 150.039 122.731 149.921 122.816C149.815 122.901 149.665 122.944 149.473 122.944H144.897V127.52C144.897 127.723 144.844 127.883 144.737 128C144.631 128.107 144.481 128.16 144.289 128.16ZM158.086 128.16C157.905 128.16 157.761 128.107 157.654 128C157.548 127.883 157.494 127.723 157.494 127.52V117.28C157.494 117.077 157.548 116.923 157.654 116.816C157.761 116.699 157.905 116.64 158.086 116.64C158.278 116.64 158.428 116.699 158.534 116.816C158.641 116.933 158.694 117.088 158.694 117.28V127.52C158.694 127.712 158.641 127.867 158.534 127.984C158.428 128.101 158.278 128.16 158.086 128.16ZM165.78 128.16C165.599 128.16 165.455 128.107 165.348 128C165.242 127.883 165.188 127.723 165.188 127.52V121.264C165.188 119.813 165.594 118.683 166.404 117.872C167.226 117.051 168.362 116.64 169.812 116.64C171.252 116.64 172.383 117.051 173.204 117.872C174.026 118.693 174.436 119.824 174.436 121.264V127.52C174.436 127.723 174.383 127.883 174.276 128C174.17 128.107 174.02 128.16 173.828 128.16C173.647 128.16 173.498 128.107 173.38 128C173.274 127.883 173.22 127.723 173.22 127.52V123.92H166.388V127.52C166.388 127.723 166.335 127.883 166.228 128C166.122 128.107 165.972 128.16 165.78 128.16ZM173.22 122.928V121.216C173.22 120.075 172.927 119.2 172.34 118.592C171.754 117.973 170.911 117.664 169.812 117.664C168.703 117.664 167.855 117.968 167.268 118.576C166.682 119.184 166.388 120.064 166.388 121.216V122.928H173.22Z" fill="#7CAA8C"/>
</svg>
